<?xml version="1.0" encoding="UTF-8"?>
<svg id="Ebene_1" data-name="Ebene 1" xmlns="http://www.w3.org/2000/svg" viewBox="0 0 985.13 200.25">
  <defs>
    <style>
      .cls-1 {
        fill: #1d6e9b;
      }
    </style>
  </defs>
  <g>
    <path d="M99.96,200.25c-26.38-.38-49.41-9.29-68.66-27.43-16.16-15.23-26.36-33.88-29.84-55.82C-3.68,84.59,4.73,55.94,26.95,31.72,42.24,15.06,61.38,5.07,83.7,1.37c15.58-2.58,30.97-1.53,46.08,3.2,6.89,2.16,10.82,8.78,9.48,15.98-1.23,6.58-7.49,11.45-14.35,10.88-2.41-.2-4.75-1.08-7.13-1.62-25.54-5.77-48.17-.06-67.47,17.68-12.07,11.09-19.35,25.01-21.82,41.21-3.21,21.07,1.85,40.14,15.18,56.79,11.3,14.12,26.03,22.78,43.83,26.03,11.4,2.08,22.69,1.3,33.79-2.06,6.94-2.1,14.27,1.27,17.06,7.87,3.15,7.46-.79,15.98-8.52,18.39-9.71,3.02-19.66,4.5-29.85,4.52Z"/>
    <path class="cls-1" d="M166.88,71.77c-.47.45-.83.78-1.18,1.13-18.51,18.5-37.01,37.01-55.51,55.51-5.95,5.95-14.21,5.96-20.14.02-11.86-11.86-23.73-23.73-35.59-35.59-7.49-7.49-4.12-20.22,6.13-22.89,4.93-1.28,9.41-.15,13.06,3.46,8.49,8.41,16.9,16.88,25.35,25.32,1.17,1.17.93,1.19,2.09.03,19.66-19.66,39.32-39.32,58.98-58.98,2.65-2.66,5.86-4.08,9.59-4.09,4.72-.02,8.58,1.91,11.36,5.76,8.68,12.02,14.48,25.3,17.24,39.88.91,4.81,1.48,9.66,1.67,14.55.87,23.04-5.38,43.96-18.74,62.74-3.43,4.82-8.32,6.68-14.05,5.47-5.71-1.21-9.27-4.92-10.51-10.66-.84-3.89.02-7.5,2.34-10.72,6.62-9.2,10.9-19.38,12.78-30.55,1.01-6.02,1.24-12.07.71-18.17-.64-7.33-2.3-14.39-5.09-21.19-.12-.3-.27-.59-.47-1.04Z"/>
  </g>
  <g>
    <g>
      <path d="M263.57,133.87c3.44,0,6.44.37,9.18,2.41,3,2.26,4.74,5.85,4.74,9.95s-1.7,7.66-4.96,9.95c-2.89,2.04-5.59,2.37-9.03,2.37h-5.11v-24.68h5.18ZM262.16,155h1.63c1.85,0,4.4-.15,6.55-1.74,1.7-1.3,3.37-3.66,3.37-7.03s-1.55-5.81-3.33-7.1c-2.15-1.55-4.77-1.7-6.59-1.7h-1.63v17.58Z"/>
      <path d="M288.92,133.87v24.68h-3.77v-24.68h3.77Z"/>
      <path d="M311.5,137.43h-9.84v6.25h9.55v3.55h-9.55v7.77h9.84v3.55h-13.62v-24.68h13.62v3.55Z"/>
      <path d="M335.59,155h11.84v3.55h-17.98l12.14-21.13h-10.14v-3.55h16.28l-12.14,21.13Z"/>
      <path d="M358.1,133.87v14.88c0,1.33.04,2.96.78,4.25.74,1.26,2.4,2.55,4.59,2.55s3.85-1.29,4.59-2.55c.74-1.29.78-2.92.78-4.25v-14.88h3.77v15.87c0,1.96-.41,4.33-2.29,6.4-1.29,1.41-3.48,2.89-6.85,2.89s-5.55-1.48-6.85-2.89c-1.89-2.07-2.29-4.44-2.29-6.4v-15.87h3.77Z"/>
      <path d="M385.34,143.72l9.55-9.84h4.96l-11.14,11.17,11.21,13.51h-5.03l-8.81-10.95-.74.74v10.21h-3.77v-24.68h3.77v9.84Z"/>
      <path d="M409.92,133.87v14.88c0,1.33.04,2.96.78,4.25.74,1.26,2.4,2.55,4.59,2.55s3.85-1.29,4.59-2.55c.74-1.29.78-2.92.78-4.25v-14.88h3.77v15.87c0,1.96-.41,4.33-2.29,6.4-1.29,1.41-3.48,2.89-6.85,2.89s-5.55-1.48-6.85-2.89c-1.89-2.07-2.29-4.44-2.29-6.4v-15.87h3.77Z"/>
      <path d="M433.38,158.56v-26.35l17.91,18.76v-17.09h3.77v26.2l-17.91-18.76v17.24h-3.77Z"/>
      <path d="M476.44,137.43h-8.58v6.25h8.29v3.55h-8.29v11.32h-3.77v-24.68h12.36v3.55Z"/>
      <path d="M491.33,137.43v21.13h-3.77v-21.13h-5.66v-3.55h15.1v3.55h-5.66Z"/>
      <path d="M520.41,133.87c3.44,0,6.44.37,9.18,2.41,3,2.26,4.74,5.85,4.74,9.95s-1.7,7.66-4.96,9.95c-2.89,2.04-5.59,2.37-9.03,2.37h-5.11v-24.68h5.18ZM519,155h1.63c1.85,0,4.4-.15,6.55-1.74,1.7-1.3,3.37-3.66,3.37-7.03s-1.55-5.81-3.33-7.1c-2.15-1.55-4.77-1.7-6.59-1.7h-1.63v17.58Z"/>
      <path d="M555.62,137.43h-9.84v6.25h9.55v3.55h-9.55v7.77h9.84v3.55h-13.62v-24.68h13.62v3.55Z"/>
      <path d="M568.1,133.87c3,0,4.92.37,6.51,1.44,2.7,1.81,2.92,4.74,2.92,5.81,0,3.55-2.18,6.14-5.48,6.88l7.7,10.55h-4.55l-7.07-10.1h-.67v10.1h-3.77v-24.68h4.4ZM567.47,145.2h1.18c1.04,0,5.25-.11,5.25-4.03,0-3.48-3.29-3.81-5.14-3.81h-1.29v7.84Z"/>
      <path d="M603.8,133.87c1.52,0,3.63.15,5.4,1.33,2.07,1.37,3.07,3.74,3.07,5.99,0,1.44-.37,3.66-2.41,5.4-1.96,1.67-4.22,1.92-6.03,1.92h-1.7v10.03h-3.77v-24.68h5.44ZM602.14,145.05h1.7c3.26,0,4.81-1.59,4.81-3.89,0-1.37-.56-3.81-4.85-3.81h-1.67v7.7Z"/>
      <path d="M632.39,137.43h-9.84v6.25h9.55v3.55h-9.55v7.77h9.84v3.55h-13.62v-24.68h13.62v3.55Z"/>
      <path d="M644.87,133.87c3,0,4.92.37,6.51,1.44,2.7,1.81,2.92,4.74,2.92,5.81,0,3.55-2.18,6.14-5.48,6.88l7.7,10.55h-4.55l-7.07-10.1h-.67v10.1h-3.77v-24.68h4.4ZM644.24,145.2h1.18c1.04,0,5.25-.11,5.25-4.03,0-3.48-3.29-3.81-5.14-3.81h-1.29v7.84Z"/>
      <path d="M673.25,139.35c-.22-.56-.56-1.07-1.11-1.55-.78-.63-1.59-.89-2.66-.89-2.29,0-3.48,1.37-3.48,2.96,0,.74.26,2.04,2.66,3l2.48,1c4.55,1.85,5.81,4.44,5.81,7.25,0,4.7-3.33,7.92-7.96,7.92-2.85,0-4.55-1.07-5.81-2.48-1.33-1.48-1.92-3.11-2.07-4.81l3.74-.81c0,1.22.44,2.37,1.04,3.14.7.89,1.74,1.48,3.22,1.48,2.29,0,4.07-1.67,4.07-4.14s-1.92-3.55-3.55-4.22l-2.37-1c-2.04-.85-5.03-2.55-5.03-6.25,0-3.33,2.59-6.51,7.22-6.51,2.66,0,4.18,1,4.96,1.67.67.59,1.37,1.44,1.89,2.48l-3.03,1.78Z"/>
      <path d="M708.8,146.23c0,7.25-5.44,12.8-12.84,12.8s-12.84-5.55-12.84-12.8,5.44-12.8,12.84-12.8,12.84,5.55,12.84,12.8ZM705.03,146.23c0-5.48-3.77-9.32-9.07-9.32s-9.07,3.85-9.07,9.32,3.77,9.33,9.07,9.33,9.07-3.85,9.07-9.33Z"/>
      <path d="M716.5,158.56v-26.35l17.91,18.76v-17.09h3.77v26.2l-17.91-18.76v17.24h-3.77Z"/>
      <path d="M761.66,152.6h-10.54l-2.7,5.96h-4.07l12.28-26.12,11.69,26.12h-4.07l-2.59-5.96ZM760.15,149.05l-3.66-8.36-3.81,8.36h7.47Z"/>
      <path d="M778.26,133.87v21.13h7.25v3.55h-11.03v-24.68h3.77Z"/>
      <path d="M795.59,133.87c3.18,0,5.18.41,6.81,1.92,1.33,1.26,1.96,2.85,1.96,4.88,0,.96-.15,1.96-.74,2.92-.55.96-1.29,1.44-1.85,1.7.44.11,1.96.52,3.18,1.78,1.33,1.41,1.63,3.11,1.63,4.62,0,1.78-.44,3.18-1.63,4.44-1.96,2.07-5.03,2.41-6.92,2.41h-6.18v-24.68h3.74ZM795.62,144.49h1.15c.92,0,2.18-.11,3.07-.96.85-.81.96-1.96.96-2.81,0-.74-.11-1.63-.89-2.37-.85-.81-1.92-.93-3-.93h-1.29v7.07ZM795.62,155h2.29c1.07,0,2.78-.18,3.74-.96.74-.59,1.22-1.63,1.22-2.74,0-1-.37-1.96-1-2.59-1.04-1-2.55-1.11-3.89-1.11h-2.37v7.4Z"/>
      <path d="M827.86,137.43h-9.84v6.25h9.55v3.55h-9.55v7.77h9.84v3.55h-13.62v-24.68h13.62v3.55Z"/>
      <path d="M840.33,133.87c3,0,4.92.37,6.51,1.44,2.7,1.81,2.92,4.74,2.92,5.81,0,3.55-2.18,6.14-5.48,6.88l7.7,10.55h-4.55l-7.07-10.1h-.67v10.1h-3.77v-24.68h4.4ZM839.71,145.2h1.18c1.04,0,5.25-.11,5.25-4.03,0-3.48-3.29-3.81-5.14-3.81h-1.29v7.84Z"/>
      <path d="M874.39,152.6h-10.54l-2.7,5.96h-4.07l12.28-26.12,11.69,26.12h-4.07l-2.59-5.96ZM872.87,149.05l-3.66-8.36-3.81,8.36h7.47Z"/>
      <path d="M892.44,137.43v21.13h-3.77v-21.13h-5.66v-3.55h15.1v3.55h-5.66Z"/>
      <path d="M908.11,133.87v14.88c0,1.33.04,2.96.78,4.25.74,1.26,2.41,2.55,4.59,2.55s3.85-1.29,4.59-2.55c.74-1.29.78-2.92.78-4.25v-14.88h3.77v15.87c0,1.96-.41,4.33-2.29,6.4-1.29,1.41-3.48,2.89-6.85,2.89s-5.55-1.48-6.85-2.89c-1.89-2.07-2.29-4.44-2.29-6.4v-15.87h3.77Z"/>
      <path d="M931.57,158.56v-26.35l17.91,18.76v-17.09h3.77v26.2l-17.91-18.76v17.24h-3.77Z"/>
      <path d="M974.96,145.72h10.17v.18c0,4.22-1.26,7.66-3.66,9.99-2.55,2.48-5.59,3.15-8.4,3.15-3.59,0-6.14-1.04-8.4-3.37-2.41-2.48-3.66-5.77-3.66-9.33,0-3.85,1.55-7.18,3.59-9.21,2.11-2.15,5.48-3.7,9.29-3.7,2.22,0,4.51.48,6.44,1.55,2.04,1.15,3.29,2.59,4,3.7l-3,2.11c-.74-1.04-1.85-2.15-3.03-2.81-1.37-.81-2.85-1.07-4.37-1.07-3.22,0-5.29,1.33-6.51,2.55-1.63,1.63-2.63,4.26-2.63,6.92,0,2.48.92,4.96,2.55,6.7,1.7,1.81,3.81,2.48,6.18,2.48,2.15,0,3.92-.63,5.51-2.18,1.37-1.33,1.92-2.77,2.07-4.18h-6.14v-3.48Z"/>
    </g>
    <g>
      <path d="M304.04,106.59c-6.68,2.42-10.35,3.19-14.51,3.19-11.22,0-19.64-4.45-24.96-9.68-6.29-6.29-9.77-15.09-9.77-23.51,0-9.19,3.97-17.9,9.77-23.8,5.71-5.81,14.32-10.06,24.38-10.06,3.1,0,8.13.48,15.09,3.29v20.03c-5.42-6.68-11.8-7.06-14.61-7.06-4.84,0-8.51,1.45-11.61,4.26-3.97,3.68-5.61,8.71-5.61,13.26s1.84,9.39,5.23,12.58c2.81,2.61,7.26,4.45,12,4.45,2.52,0,8.71-.29,14.61-6.77v19.84Z"/>
      <path d="M331.13,43.79v50.31h20.12v14.22h-36.86V43.79h16.74Z"/>
      <path d="M396.25,58.02h-19.93v10.74h18.87v14.22h-18.87v11.13h19.93v14.22h-36.67V43.79h36.67v14.22Z"/>
      <path d="M419.38,43.79l15.48,39.28,15.67-39.28h18.19l-27.48,64.54h-13.06l-27.09-64.54h18.29Z"/>
      <path d="M511.59,58.02h-19.93v10.74h18.87v14.22h-18.87v11.13h19.93v14.22h-36.67V43.79h36.67v14.22Z"/>
      <path d="M549.52,43.79c4.84,0,11.03.77,15.77,5.71,3.68,3.77,5.51,9.39,5.51,14.51,0,5.52-1.93,10.35-5.13,13.45-2.52,2.42-5.9,3.87-8.9,4.45l20.22,26.41h-20.8l-16.06-24.77v24.77h-16.74V43.79h26.12ZM540.14,72.72h3.19c2.52,0,6.1-.68,8.13-2.61,1.26-1.26,2.13-3.39,2.13-5.42s-.77-4.06-2.23-5.42c-1.55-1.55-4.35-2.52-8.03-2.52h-3.19v15.96Z"/>
      <path class="cls-1" d="M581.01,108.33l10.71-64.54h16.21l12.8,34.44,13.56-34.44h16.4l9.48,64.54h-16.4l-4.65-37.15-15.27,37.15h-6.54l-14.6-37.15-5.4,37.15h-16.31Z"/>
      <path class="cls-1" d="M710.49,97.49h-23.42l-4.35,10.84h-17.71l24.77-64.54h18.29l24.29,64.54h-17.9l-3.97-10.84ZM706.04,84.72l-7.26-20.9-7.06,20.9h14.32Z"/>
      <path class="cls-1" d="M761.02,58.02v50.31h-16.74v-50.31h-13.74v-14.22h44.22v14.22h-13.74Z"/>
      <path class="cls-1" d="M827.75,106.57c-6.68,2.44-10.35,3.22-14.51,3.22-11.22,0-19.64-4.5-24.96-9.77-6.29-6.35-9.77-15.24-9.77-23.75,0-9.28,3.97-18.08,9.77-24.04,5.71-5.86,14.32-10.16,24.38-10.16,3.1,0,8.13.49,15.09,3.32v20.23c-5.42-6.74-11.8-7.13-14.61-7.13-4.84,0-8.51,1.47-11.61,4.3-3.97,3.71-5.61,8.79-5.61,13.39s1.84,9.48,5.22,12.7c2.81,2.64,7.26,4.5,12,4.5,2.52,0,8.71-.29,14.61-6.84v20.03Z"/>
      <path class="cls-1" d="M857.36,67.88h24.19v-24.09h16.83v64.54h-16.83v-26.12h-24.19v26.12h-16.74V43.79h16.74v24.09Z"/>
    </g>
  </g>
</svg>