<?xml version="1.0" encoding="UTF-8"?>
<svg id="Ebene_1" data-name="Ebene 1" xmlns="http://www.w3.org/2000/svg" viewBox="0 0 998.2 200.25">
  <defs>
    <style>
      .cls-1, .cls-2 {
        stroke-width: 0px;
      }

      .cls-2 {
        fill: #1d6e9b;
      }
    </style>
  </defs>
  <g>
    <path class="cls-1" d="m99.96,200.25c-26.38-.38-49.41-9.29-68.66-27.43-16.16-15.23-26.36-33.88-29.84-55.82C-3.68,84.59,4.73,55.94,26.95,31.72,42.24,15.06,61.38,5.07,83.7,1.37c15.58-2.58,30.97-1.53,46.08,3.2,6.89,2.16,10.82,8.78,9.48,15.98-1.23,6.58-7.49,11.45-14.35,10.88-2.41-.2-4.75-1.08-7.13-1.62-25.54-5.77-48.17-.06-67.47,17.68-12.07,11.09-19.35,25.01-21.82,41.21-3.21,21.07,1.85,40.14,15.18,56.79,11.3,14.12,26.03,22.78,43.83,26.03,11.4,2.08,22.69,1.3,33.79-2.06,6.94-2.1,14.27,1.27,17.06,7.87,3.15,7.46-.79,15.98-8.52,18.39-9.71,3.02-19.66,4.5-29.85,4.52Z"/>
    <path class="cls-2" d="m166.88,71.77c-.47.45-.83.78-1.18,1.13-18.51,18.5-37.01,37.01-55.51,55.51-5.95,5.95-14.21,5.96-20.14.02-11.86-11.86-23.73-23.73-35.59-35.59-7.49-7.49-4.12-20.22,6.13-22.89,4.93-1.28,9.41-.15,13.06,3.46,8.49,8.41,16.9,16.88,25.35,25.32,1.17,1.17.93,1.19,2.09.03,19.66-19.66,39.32-39.32,58.98-58.98,2.65-2.66,5.86-4.08,9.59-4.09,4.72-.02,8.58,1.91,11.36,5.76,8.68,12.02,14.48,25.3,17.24,39.88.91,4.81,1.48,9.66,1.67,14.55.87,23.04-5.38,43.96-18.74,62.74-3.43,4.82-8.32,6.68-14.05,5.47-5.71-1.21-9.27-4.92-10.51-10.66-.84-3.89.02-7.5,2.34-10.72,6.62-9.2,10.9-19.38,12.78-30.55,1.01-6.02,1.24-12.07.71-18.17-.64-7.33-2.3-14.39-5.09-21.19-.12-.3-.27-.59-.47-1.04Z"/>
  </g>
  <g>
    <path class="cls-1" d="m264.13,144.47h11.44v-10.56h4.08v26.68h-4.08v-12.28h-11.44v12.28h-4.08v-26.68h4.08v10.56Z"/>
    <path class="cls-1" d="m295.41,133.91c3.24,0,5.32.4,7.04,1.56,2.92,1.96,3.16,5.12,3.16,6.28,0,3.84-2.36,6.64-5.92,7.44l8.32,11.4h-4.92l-7.64-10.92h-.72v10.92h-4.08v-26.68h4.76Zm-.68,12.24h1.28c1.12,0,5.68-.12,5.68-4.36,0-3.76-3.56-4.12-5.56-4.12h-1.4v8.48Z"/>
    <path class="cls-1" d="m350.45,140.15c-2.96-2.68-5.72-2.96-7.24-2.96-5.8,0-9.72,4.28-9.72,10.16s4.08,10,9.76,10c3.2,0,5.68-1.64,7.2-3.08v4.84c-2.68,1.6-5.48,2-7.32,2-4.84,0-7.88-2.2-9.44-3.68-3.12-2.92-4.28-6.32-4.28-10.08,0-4.92,2.04-8.32,4.28-10.44,2.76-2.6,5.96-3.48,9.64-3.48,2.44,0,4.8.44,7.12,1.92v4.8Z"/>
    <path class="cls-1" d="m385.94,147.26c0,7.84-5.88,13.84-13.88,13.84s-13.88-6-13.88-13.84,5.88-13.84,13.88-13.84,13.88,6,13.88,13.84Zm-4.08,0c0-5.92-4.08-10.08-9.8-10.08s-9.8,4.16-9.8,10.08,4.08,10.08,9.8,10.08,9.8-4.16,9.8-10.08Z"/>
    <path class="cls-1" d="m395.52,160.58v-28.48l19.36,20.28v-18.48h4.08v28.32l-19.36-20.28v18.64h-4.08Z"/>
    <path class="cls-1" d="m441.4,139.83c-.24-.6-.6-1.16-1.2-1.68-.84-.68-1.72-.96-2.88-.96-2.48,0-3.76,1.48-3.76,3.2,0,.8.28,2.2,2.88,3.24l2.68,1.08c4.92,2,6.28,4.8,6.28,7.84,0,5.08-3.6,8.56-8.6,8.56-3.08,0-4.92-1.16-6.28-2.68-1.44-1.6-2.08-3.36-2.24-5.2l4.04-.88c0,1.32.48,2.56,1.12,3.4.76.96,1.88,1.6,3.48,1.6,2.48,0,4.4-1.8,4.4-4.48s-2.08-3.84-3.84-4.56l-2.56-1.08c-2.2-.92-5.44-2.76-5.44-6.76,0-3.6,2.8-7.04,7.8-7.04,2.88,0,4.52,1.08,5.36,1.8.72.64,1.48,1.56,2.04,2.68l-3.28,1.92Z"/>
    <path class="cls-1" d="m458.74,133.91v16.08c0,1.44.04,3.2.84,4.6.8,1.36,2.6,2.76,4.96,2.76s4.16-1.4,4.96-2.76c.8-1.4.84-3.16.84-4.6v-16.08h4.08v17.16c0,2.12-.44,4.68-2.48,6.92-1.4,1.52-3.76,3.12-7.4,3.12s-6-1.6-7.4-3.12c-2.04-2.24-2.48-4.8-2.48-6.92v-17.16h4.08Z"/>
    <path class="cls-1" d="m489.43,133.91v22.84h7.84v3.84h-11.92v-26.68h4.08Z"/>
    <path class="cls-1" d="m511.01,137.75v22.84h-4.08v-22.84h-6.12v-3.84h16.32v3.84h-6.12Z"/>
    <path class="cls-1" d="m529.19,133.91v26.68h-4.08v-26.68h4.08Z"/>
    <path class="cls-1" d="m540.13,160.58v-28.48l19.36,20.28v-18.48h4.08v28.32l-19.36-20.28v18.64h-4.08Z"/>
    <path class="cls-1" d="m588.29,146.7h11v.2c0,4.56-1.36,8.28-3.96,10.8-2.76,2.68-6.04,3.4-9.08,3.4-3.88,0-6.64-1.12-9.08-3.64-2.6-2.68-3.96-6.24-3.96-10.08,0-4.16,1.68-7.76,3.88-9.96,2.28-2.32,5.92-4,10.04-4,2.4,0,4.88.52,6.96,1.68,2.2,1.24,3.56,2.8,4.32,4l-3.24,2.28c-.8-1.12-2-2.32-3.28-3.04-1.48-.88-3.08-1.16-4.72-1.16-3.48,0-5.72,1.44-7.04,2.76-1.76,1.76-2.84,4.6-2.84,7.48,0,2.68,1,5.36,2.76,7.24,1.84,1.96,4.12,2.68,6.68,2.68,2.32,0,4.24-.68,5.96-2.36,1.48-1.44,2.08-3,2.24-4.52h-6.64v-3.76Z"/>
    <path class="cls-1" d="m608.47,155.58l3.52,1.36-4.96,9.88-2.64-1.08,4.08-10.16Z"/>
    <path class="cls-1" d="m634.67,160.58l5.6-28.67,9.28,20.72,9.36-20.72,5.04,28.67h-4.16l-2.72-16.08-7.76,17.32-7.68-17.36-2.8,16.12h-4.16Z"/>
    <path class="cls-1" d="m699.59,147.26c0,7.84-5.88,13.84-13.88,13.84s-13.88-6-13.88-13.84,5.88-13.84,13.88-13.84,13.88,6,13.88,13.84Zm-4.08,0c0-5.92-4.08-10.08-9.8-10.08s-9.8,4.16-9.8,10.08,4.08,10.08,9.8,10.08,9.8-4.16,9.8-10.08Z"/>
    <path class="cls-1" d="m713.93,133.91c3.24,0,5.32.4,7.04,1.56,2.92,1.96,3.16,5.12,3.16,6.28,0,3.84-2.36,6.64-5.92,7.44l8.32,11.4h-4.92l-7.64-10.92h-.72v10.92h-4.08v-26.68h4.76Zm-.68,12.24h1.28c1.12,0,5.68-.12,5.68-4.36,0-3.76-3.56-4.12-5.56-4.12h-1.4v8.48Z"/>
    <path class="cls-1" d="m749.44,137.75h-10.64v6.76h10.32v3.84h-10.32v8.4h10.64v3.84h-14.72v-26.68h14.72v3.84Z"/>
    <path class="cls-1" d="m779.29,133.91c1.64,0,3.92.16,5.84,1.44,2.24,1.48,3.32,4.04,3.32,6.48,0,1.56-.4,3.96-2.6,5.84-2.12,1.8-4.56,2.08-6.52,2.08h-1.84v10.84h-4.08v-26.68h5.88Zm-1.8,12.08h1.84c3.52,0,5.2-1.72,5.2-4.2,0-1.48-.6-4.12-5.24-4.12h-1.8v8.32Z"/>
    <path class="cls-1" d="m811.44,137.75h-10.64v6.76h10.32v3.84h-10.32v8.4h10.64v3.84h-14.72v-26.68h14.72v3.84Z"/>
    <path class="cls-1" d="m826.17,133.91c3.24,0,5.32.4,7.04,1.56,2.92,1.96,3.16,5.12,3.16,6.28,0,3.84-2.36,6.64-5.92,7.44l8.32,11.4h-4.92l-7.64-10.92h-.72v10.92h-4.08v-26.68h4.76Zm-.68,12.24h1.28c1.12,0,5.68-.12,5.68-4.36,0-3.76-3.56-4.12-5.56-4.12h-1.4v8.48Z"/>
    <path class="cls-1" d="m858.1,139.83c-.24-.6-.6-1.16-1.2-1.68-.84-.68-1.72-.96-2.88-.96-2.48,0-3.76,1.48-3.76,3.2,0,.8.28,2.2,2.88,3.24l2.68,1.08c4.92,2,6.28,4.8,6.28,7.84,0,5.08-3.6,8.56-8.6,8.56-3.08,0-4.92-1.16-6.28-2.68-1.44-1.6-2.08-3.36-2.24-5.2l4.04-.88c0,1.32.48,2.56,1.12,3.4.76.96,1.88,1.6,3.48,1.6,2.48,0,4.4-1.8,4.4-4.48s-2.08-3.84-3.84-4.56l-2.56-1.08c-2.2-.92-5.44-2.76-5.44-6.76,0-3.6,2.8-7.04,7.8-7.04,2.88,0,4.52,1.08,5.36,1.8.72.64,1.48,1.56,2.04,2.68l-3.28,1.92Z"/>
    <path class="cls-1" d="m897.77,147.26c0,7.84-5.88,13.84-13.88,13.84s-13.88-6-13.88-13.84,5.88-13.84,13.88-13.84,13.88,6,13.88,13.84Zm-4.08,0c0-5.92-4.08-10.08-9.8-10.08s-9.8,4.16-9.8,10.08,4.08,10.08,9.8,10.08,9.8-4.16,9.8-10.08Z"/>
    <path class="cls-1" d="m907.35,160.58v-28.48l19.36,20.28v-18.48h4.08v28.32l-19.36-20.28v18.64h-4.08Z"/>
    <path class="cls-1" d="m957.42,154.14h-11.4l-2.92,6.44h-4.4l13.28-28.24,12.64,28.24h-4.4l-2.8-6.44Zm-1.64-3.84l-3.96-9.04-4.12,9.04h8.08Z"/>
    <path class="cls-1" d="m976.61,133.91v22.84h7.84v3.84h-11.92v-26.68h4.08Z"/>
    <path class="cls-1" d="m995.8,156.26c1.32,0,2.4,1.08,2.4,2.4s-1.08,2.4-2.4,2.4-2.4-1.08-2.4-2.4,1.08-2.4,2.4-2.4Z"/>
  </g>
  <g>
    <path class="cls-1" d="m304.95,103.49c-6.68,2.42-10.35,3.19-14.51,3.19-11.22,0-19.64-4.45-24.96-9.67-6.29-6.29-9.77-15.09-9.77-23.51,0-9.19,3.97-17.9,9.77-23.8,5.71-5.81,14.32-10.06,24.38-10.06,3.1,0,8.13.48,15.09,3.29v20.03c-5.42-6.68-11.8-7.06-14.61-7.06-4.84,0-8.51,1.45-11.61,4.26-3.97,3.68-5.61,8.71-5.61,13.26s1.84,9.39,5.23,12.58c2.81,2.61,7.26,4.45,12,4.45,2.52,0,8.71-.29,14.61-6.77v19.83Z"/>
    <path class="cls-1" d="m332.05,40.7v50.31h20.12v14.22h-36.86V40.7h16.74Z"/>
    <path class="cls-1" d="m397.17,54.92h-19.93v10.74h18.87v14.22h-18.87v11.13h19.93v14.22h-36.67V40.7h36.67v14.22Z"/>
    <path class="cls-1" d="m420.29,40.7l15.48,39.28,15.67-39.28h18.19l-27.48,64.54h-13.06l-27.09-64.54h18.29Z"/>
    <path class="cls-1" d="m512.5,54.92h-19.93v10.74h18.87v14.22h-18.87v11.13h19.93v14.22h-36.67V40.7h36.67v14.22Z"/>
    <path class="cls-1" d="m550.44,40.7c4.84,0,11.03.77,15.77,5.71,3.68,3.77,5.52,9.39,5.52,14.51,0,5.52-1.94,10.35-5.13,13.45-2.52,2.42-5.9,3.87-8.9,4.45l20.22,26.41h-20.8l-16.06-24.77v24.77h-16.74V40.7h26.12Zm-9.38,28.93h3.19c2.52,0,6.1-.68,8.13-2.61,1.26-1.26,2.13-3.39,2.13-5.42s-.77-4.06-2.23-5.42c-1.55-1.55-4.35-2.52-8.03-2.52h-3.19v15.96Z"/>
    <path class="cls-2" d="m581.93,105.23l10.71-64.54h16.21l12.8,34.44,13.56-34.44h16.4l9.48,64.54h-16.4l-4.65-37.15-15.27,37.15h-6.54l-14.6-37.15-5.4,37.15h-16.31Z"/>
    <path class="cls-2" d="m711.4,94.4h-23.42l-4.35,10.84h-17.71l24.77-64.54h18.29l24.29,64.54h-17.9l-3.97-10.84Zm-4.45-12.77l-7.26-20.9-7.06,20.9h14.32Z"/>
    <path class="cls-2" d="m761.93,54.92v50.31h-16.74v-50.31h-13.74v-14.22h44.22v14.22h-13.74Z"/>
    <path class="cls-2" d="m828.66,103.47c-6.68,2.44-10.35,3.22-14.51,3.22-11.22,0-19.64-4.5-24.96-9.77-6.29-6.35-9.77-15.24-9.77-23.75,0-9.28,3.97-18.08,9.77-24.04,5.71-5.86,14.32-10.16,24.38-10.16,3.1,0,8.13.49,15.09,3.32v20.23c-5.42-6.74-11.8-7.13-14.61-7.13-4.84,0-8.51,1.47-11.61,4.3-3.97,3.71-5.61,8.79-5.61,13.39s1.84,9.48,5.22,12.7c2.81,2.64,7.26,4.5,12,4.5,2.52,0,8.71-.29,14.61-6.84v20.03Z"/>
    <path class="cls-2" d="m858.28,64.79h24.19v-24.09h16.83v64.54h-16.83v-26.12h-24.19v26.12h-16.74V40.7h16.74v24.09Z"/>
  </g>
</svg>