<?xml version="1.0" encoding="UTF-8"?>
<svg id="Ebene_1" data-name="Ebene 1" xmlns="http://www.w3.org/2000/svg" viewBox="0 0 210 210">
  <circle cx="105" cy="105" r="105" fill="#fff"/>
  <path d="m165.85,130.27c-.49,9.82-2.73,18.51-9.9,25.68-7.16,7.19-15.86,9.43-25.68,9.9-10.12.57-40.44.57-50.56,0-9.82-.49-18.48-2.73-25.68-9.9s-9.43-15.86-9.9-25.68c-.57-10.12-.57-40.44,0-50.56.49-9.82,2.71-18.51,9.9-25.68s15.89-9.41,25.68-9.87c10.12-.57,40.44-.57,50.56,0,9.82.49,18.51,2.73,25.68,9.9,7.19,7.16,9.43,15.86,9.9,25.68.58,10.12.58,40.41,0,50.53Zm-10.61-25.27c0-8.91.74-28.05-2.46-36.12-2.16-5.39-6.29-9.52-11.65-11.65-8.04-3.17-27.21-2.46-36.12-2.46s-28.05-.74-36.12,2.46c-5.39,2.16-9.52,6.29-11.65,11.65-3.17,8.04-2.46,27.21-2.46,36.12s-.74,28.05,2.46,36.12c2.16,5.39,6.29,9.52,11.65,11.65,8.04,3.17,27.21,2.46,36.12,2.46s28.06.74,36.12-2.46c5.39-2.16,9.52-6.29,11.65-11.65,3.2-8.04,2.46-27.21,2.46-36.12Zm-18.81,0c0,17.39-14.03,31.42-31.42,31.42s-31.42-14.03-31.42-31.42,14.03-31.42,31.42-31.42,31.42,14.03,31.42,31.42Zm-10.99,0c0-11.27-9.16-20.43-20.43-20.43s-20.43,9.16-20.43,20.43,9.19,20.43,20.43,20.43,20.43-9.16,20.43-20.43Zm12.28-25.38c-4.08,0-7.33-3.28-7.33-7.33s3.28-7.33,7.33-7.33,7.33,3.28,7.33,7.33-3.28,7.33-7.33,7.33Z" fill="#0f374e"/>
</svg>