<?xml version="1.0" encoding="UTF-8"?>
<svg id="Ebene_1" data-name="Ebene 1" xmlns="http://www.w3.org/2000/svg" viewBox="0 0 210 210">
  <circle cx="105" cy="105" r="105" fill="#fff"/>
  <path d="m74.42,131.82c-1.51,2.55-3.32,3.85-5.44,3.85h-20.03c-2.37,0-3.72-2.31-2.61-4.43l21.23-37.31c.06,0,.06-.03,0-.09l-13.5-23.26c-1.32-2.4.09-4.34,2.61-4.34h20.03c2.25,0,4.09,1.26,5.54,3.75l13.75,23.84c-.55,1.02-7.75,13.66-21.56,37.99Zm44.91-10.58v.09l28.18,51.25c1.2,2.18.06,4.34-2.61,4.34h-20.06c-2.34,0-4.18-1.23-5.54-3.75l-28.42-51.83c1.02-1.78,15.84-27.93,44.54-78.5,1.42-2.49,3.2-3.75,5.38-3.75h20.21c2.46,0,3.78,2.06,2.61,4.34l-44.3,77.83Z" fill="#0f374e"/>
</svg>