<?xml version="1.0" encoding="UTF-8"?>
<svg id="Ebene_1" data-name="Ebene 1" xmlns="http://www.w3.org/2000/svg" viewBox="0 0 210 210">
  <circle cx="105" cy="105" r="105" fill="#fff"/>
  <path d="m48.97,55c0-7.96,6.46-14.41,14.41-14.41s14.41,6.46,14.41,14.41-6.46,14.55-14.41,14.55-14.41-6.59-14.41-14.55Zm1.98,105.63v-80.15h24.89v80.15h-24.89Zm93.2,0v-39.02c0-9.3-.19-21.22-12.94-21.22s-14.92,10.1-14.92,20.55v39.69h-24.86v-80.15h23.87v10.93h.35c3.32-6.3,11.44-12.94,23.55-12.94,25.19,0,29.82,16.59,29.82,38.13v44.03h-24.86Z" fill="#0f374e"/>
</svg>